<?xml version="1.0" encoding="utf-8"?>
<!-- Generator: Adobe Illustrator 25.0.0, SVG Export Plug-In . SVG Version: 6.00 Build 0)  -->
<svg version="1.1" id="Layer_1" xmlns="http://www.w3.org/2000/svg" xmlns:xlink="http://www.w3.org/1999/xlink" x="0px" y="0px"
	 viewBox="0 0 633 693" style="enable-background:new 0 0 633 693;" xml:space="preserve">
<path d="M448.1,251h27.8c0-9.3,0.3-17.7-0.1-26.1c-0.8-16.8-2.1-33.5-2.8-50.2c-0.2-4.8-1.7-6.6-6.6-6.8
	c-23.9-1.1-47.7-2.6-71.6-3.8c-17.9-1-35.8-1.8-53.7-2.6c-2,0-3.9,0.1-5.9,0.4v71h-8.8v-71.8l-137.7,7.5c-1.2,27-2.5,54-3.7,82.2
	h27.8l0.1,1.6c-0.7,0.4-1.5,0.7-2.4,0.9c-16.8,0.6-24.3,11.3-25.4,26.8c-0.8,10.9-0.7,21.9-1.2,32.9c-0.1,3.1-0.8,6.2-1.2,9.9h-53
	c0-6.4-0.4-12.7,0.2-19c0.2-2,2.8-3.8,4.3-5.7l1.5,0.8v-35.6c4.8,0,9.1,0,13.5,0c2,0,4.2,0.2,5.9-0.5c1.4-0.6,2.2-2.4,3.3-3.7
	c-1.3-0.9-2.5-2.6-3.8-2.7c-8-0.4-16-0.1-23.9-0.7c-7.6-0.5-13.3-4.5-17.5-10.9c-0.8-1.1-2.8-1.9-4.3-2c-3.3-0.3-6.6-0.1-10.8-0.1
	v-73.7h19c3.7-6.3,9.4-11.9,17.5-13c7.5-1,15.2-0.2,23.2-0.2c0-10.3,0.1-19.6,0-28.9c-0.1-7.3-0.3-14.6-0.6-21.8
	c-0.5-9.9-6.9-16.4-13.9-22.1c-12.6-10.4-25.6-20.5-38.4-30.7c-0.2-0.2-0.3-0.6-0.1-0.1l16.7-19c14.7,12.2,28.9,23.4,42.4,35.3
	c8.8,7.7,16.5,16.6,18.9,28.6c1.1,5.4,1.7,10.8,1.9,16.2c0.3,11.5,0.1,23,0.1,34.4c7.9,1.1,9,0.5,11.4-6.4
	c2.2-6.4,4.5-12.8,6.6-19.3c2.3-7.1,6.6-11.6,14.5-11.8c6-0.2,11.9-0.9,17.9-1c20.7-0.3,41.3-0.3,62-0.5c18-0.2,36-1,53.9-0.9
	c29.1,0.2,58.2,0.9,87.3,1.4c9.8,0.2,17.5,3.2,20.3,14.1c1.8,7.1,5.3,13.8,7.6,20.8c1.2,3.8,4,4,6.9,4c3.6,0.1,3.1-2.8,3.2-5
	c0.2-7.8,1.1-15.7,0.4-23.4c-2.2-22.2,5.4-40,22.6-53.9c12.6-10.2,25.2-20.3,37.8-30.5c0.5-0.4,1.1-0.8,1.7-1.2l18.3,16.7
	c-6.8,5.7-13.8,11.5-20.8,17.2c-7.9,6.5-16.3,12.5-23.8,19.5c-6.2,5.9-9,13.6-8.9,22.5c0.2,14.8,0.1,29.6,0.1,44.4
	c7.7,0.5,15.2,0.9,22.8,1.6c8.3,0.9,13.8,5.8,17.2,12.6h19.3v73.9c-2.9,0-5.6-0.1-8.2,0s-5.4-1.2-7.3,2.4
	c-4.6,8.2-12.4,11-21.4,11.1c-7.3,0.1-14.6,0-22.4,0c-0.2,2.5-0.3,4.4-0.4,7.1h22c0,10.9,0,21,0,31.1c0,2.4-0.1,4.7,3.4,5
	c0.8,0.1,2.1,2.1,2.1,3.2c0.2,6.5,0.1,12.9,0.1,20h-52.4c-0.7-9.7-1.4-19.1-2-28.5c-0.2-4.5-0.1-8.9,0-13.4
	c0-12.6-8.8-27.5-24.1-27.6c-1.4-0.1-2.8-0.4-4.2-0.8L448.1,251z M123.1,167.8l0.4,1.7c2.8,0,5.5-0.1,8.3,0c3.3,0.1,4.2,1.7,4.1,5.1
	c-0.2,20.6-0.3,41.1,0,61.7c0,4.1-0.8,5.9-5,5.7c-4.5-0.2-9.1,0-14.2,0c5.2,12.3,23.6,12.6,41.2,9.6V160
	C145.2,160.2,132.2,155.9,123.1,167.8L123.1,167.8z M539.5,169.4c-4.7-5.6-8.7-9.4-14.9-9.5c-5.8-0.2-11.6-0.2-17.4-0.4
	c-3.4-0.1-3.7,2.2-3.7,4.6c-0.1,4.6,0,9.3,0,13.9c0,20.5,0,41,0,61.5c0,4.4,0.4,8.8,0.7,14c13.8-2.7,29.4,5,40.5-10.6
	c-4.5-0.4-8-0.8-11.5-0.9c-6.5-0.3-7.3-0.9-7.1-7.7c0.2-10.1,0.8-20.2,0.9-30.4c0.1-9.6,0-19.3-0.5-28.9c-0.2-4.6,1.5-6,5.8-5.6
	C534.2,169.6,536.1,169.5,539.5,169.4L539.5,169.4z"/>
<path d="M160,623.5c0,10.8,0,20.6,0,30.4c0,7.6-1,8.6-8.4,8.6c-22.8,0-45.7,0-68.5,0c-6.6,0-7-0.5-7-7c0-20.3,0-40.7,0-61
	c0-4.5,0.5-9,0.4-13.5c-0.1-3.1,1.3-4.3,4.2-4c8.2,0.7,16.5,1.3,24.7,2.2c28.4,2.8,56.7,5.8,85.1,8.7c32.4,3.3,64.9,6.5,97.3,9.7
	c15.2,1.5,30.4,3.9,45.5,3.5c19.3-0.5,38.6-3.5,57.9-5.4c20.5-2,40.9-3.8,61.4-5.8c18.8-1.8,37.6-3.8,56.4-5.7
	c24.6-2.4,49.1-4.7,73.7-7.2c4.7-0.5,4.3,3.2,4.3,5.6c0.2,21.9,0.1,43.8,0.1,65.7c0,3.2,0.6,6.7-0.3,9.7c-0.5,1.8-3.2,3.8-5.1,4.2
	c-3.5,0.7-7.3,0.3-11,0.2c-20.3-0.2-40.6-0.5-61-0.4c-4.9,0-6.1-2-6.1-6.1c0-8.4,0-16.8,0-25.1c0-6.7-0.7-7.4-7.4-7.4
	c-27.8,0.1-55.7,0.5-83.5,0.5c-68.1-0.1-136.3-0.2-204.4-0.5C192.4,623.5,176.6,623.5,160,623.5z"/>
<path d="M319.2,338.5c18.4,0,36.2-0.1,54,0.2c1.4,0,3.5,2.2,3.9,3.8c5.2,20.4,10.1,40.8,15.4,62.4c1-3.1,1.8-5.3,2.3-7.5
	c4.5-17.9,9-35.7,13.2-53.6c0.9-3.9,2.4-5.3,6.6-5.3c15.7,0.3,31.3,0.1,47,0.1c1.5,0,2.9,0.2,4.6,0.2v145.4h-40.1v-80.1l-0.8-0.1
	c-2.1,9-4.2,18-6.3,27c-3.9,16.6-7.8,33.2-11.6,49.8c-0.6,2.6-1.6,3.9-4.6,3.8c-6.3-0.2-12.7-0.2-19,0c-3.3,0.1-4.6-1.1-5.3-4.3
	c-5.8-25.5-11.8-50.9-18.3-76.4v80.3h-40.9V338.5H319.2z"/>
<path d="M441.8,323.5c-0.8-12.3-1.6-23.5-2.3-34.7c-0.2-3.5-1.7-5.3-5.3-5.8c-4.2-0.5-8.4-1.5-13.3-2.5c0.6,14.5,1.1,28.2,1.7,43.1
	c-5,0-9.2,0.2-13.4-0.2c-1-0.1-2.5-2.1-2.6-3.3c-0.7-10.8-1.3-21.5-1.6-32.3c-0.3-11.4-1.9-13.2-13.3-13.7c-2.9-0.1-3.8,1.2-3.8,3.9
	c0.3,11.3,0.5,22.6,0.7,33.8c0.1,3.6,0,7.2,0,11.3h-15.3c-0.7-17.5-1.4-34.5-2.1-51.8l-15.5-2.7V323h-16.2c0-12.7,0-24.8,0-37
	c0-3.8-0.3-7.6-0.5-11.4c-0.3-8.2-1.2-9-9.3-8.5c-2.5,0.1-4.9,0.7-7.5,1.1v55.9h-15.9v-54.8l-16.1,2.8c-0.6,17.4-1.2,34.2-1.9,51.8
	H273v-48.5c-0.1,0-0.4-0.3-0.7-0.2c-19,2.5-15.3,1.5-15.8,17.7c-0.3,9.3-0.8,18.6-1.6,27.9c-0.5,1.7-1.8,3-3.5,3.5
	c-3.7,0.5-7.5,0.2-11.8,0.2v-42.8c-5,1-10,1.8-14.9,3.1c-1.1,0.3-2.4,2.2-2.5,3.4c-0.8,10.6-1.6,21.2-2,31.8
	c-0.1,3.2-1.1,4.6-4.3,4.6c-6.8-0.1-13.7,0-20.5,0c-2.8,0-3.9-1.3-3.8-4c0.8-14.4,1.5-28.8,2.6-43.2c0.7-9.6,6-14,18-16.4
	c17.4-3.4,34.7-7.4,52.2-10.4c23-3.9,45.9-9,69.6-8.3c23.9,0.7,47.3,5.2,70.6,10c13,2.7,26,4.7,39,7.3c5,1,9.8,2.8,14.7,4.3
	c7,2.1,8.8,7.6,9.2,14c0.8,13.4,1.6,26.8,2.5,40.2c0.3,4.9-0.7,6.2-5.7,6.3C457,323.5,449.7,323.5,441.8,323.5z"/>
<path d="M258.5,432c-1.1-0.2-2.2-0.4-3.3-0.4c-6.3,0-12.6,0-19.5,0v52.6h-42.4V338.9h42.2v52.9h23.1v-53h41.7v145.3h-41.7L258.5,432
	L258.5,432z"/>
<path d="M491.4,544.3v27.4h-17.1v-68.5h16.6c3.4,9.1,6.8,18.4,10.2,27.7l0.6-0.1v-27.5h17.4c0,22.7,0,45.4,0,68.1
	c-0.3,0.1-0.6,0.4-0.9,0.4c-5,0-11.1,1.7-14.7-0.6c-3.4-2.2-4.2-8.5-6-13s-3.5-9.3-5.2-13.9L491.4,544.3z"/>
<path d="M301.4,503.4c0.2-0.1,0.5-0.2,0.7-0.3c15.1-0.9,15.1-0.9,20.4,13.4c1.9,5.1,3.9,10,6.4,16.5v-29.6h17.3V572
	c-5,0-9.8,0.3-14.5-0.2c-1.3-0.1-2.9-2.3-3.6-3.8c-3.3-8.1-6.3-16.3-10.1-24.4v28.2h-16.7v-68.4H301.4z"/>
<path d="M387.3,527c-0.6-1.4-0.7-2.8-1.5-3.5c-1.7-1.5-3.8-3.8-5.7-3.7c-2.5,0.3-4.8,1.8-6.1,3.9c-4.1,7.9-4.2,16.3-0.6,24.5
	c1.7,4,5.7,5.2,13.3,4.3v-5.7l-5.9-0.8v-14.8h22.8v40.4h-16.3c-0.2-0.9-0.5-2-0.4-1.7c-3.6,0.7-6.9,2.1-10,1.8
	c-10.7-0.9-19.4-9.5-22.1-20c-2.8-10.1-2.6-20.9,0.5-30.9c2.7-8.7,7.7-16.2,17-18.5c9.2-2.3,18.3-1.7,24.9,6.5
	c2,2.5,3.5,5.6,5.5,8.7L387.3,527z"/>
<path d="M101.4,547.3v24.4h-17v-68.4h16.9v24.4h9v-24.4h17.3v68.3h-17.1v-24.4L101.4,547.3L101.4,547.3z"/>
<path d="M186.1,503.2h17.4v38.6c0,2.3,0,4.7,0,7c0,2.9,0,6.2,4,6.1c3.8-0.1,3.5-3.2,3.5-5.9v-45.7h17.8c0.2,0.4,0.6,0.8,0.6,1.3
	c-0.1,15.7,0.4,31.3-0.5,46.9s-11.3,21.9-21.6,22c-12.1,0.1-20.9-7.8-21.6-21.3c-0.8-15.8-0.2-31.7-0.1-47.5
	C185.7,504.2,185.9,503.7,186.1,503.2z"/>
<path d="M182,571.7h-17.2c-0.5-2.8-1.5-5.8-1.7-8.8c-0.2-3.9-2.8-3.7-5.2-3.4s-6.4-1.8-6.9,3.2c-0.3,2.9-1,5.8-1.6,8.9h-16.3
	c2.4-11.6,4.7-23.1,7.1-34.5c2.2-10.2,4.6-20.3,6.5-30.6c0.6-3.1,1.8-3.7,4.5-3.7c5.3,0.2,10.6,0,16.6,0
	C172.6,525.9,177.3,548.6,182,571.7z M157.7,525.1l-0.8-0.1c-1.1,5.6-2.2,11.2-3.4,17.2h6.8C159.4,536.4,158.6,530.8,157.7,525.1
	L157.7,525.1z"/>
<path d="M575.2,512.2c-3.1,5.7-6.4,11.7-9.6,17.6c-7.1-7.8-12-9.1-17.1-4.6c-6,5.3-6.5,17.5-1,23.7c4.6,5.1,10.7,4.2,18.1-2.5
	l9.7,17.6c-11.8,13.8-33.1,12.3-42.2-2.7c-9.2-15.2-9.2-30.6-0.6-46.2C541.5,498.6,564.8,496.4,575.2,512.2z"/>
<path d="M254,503.2v50.2h13.8v18.2h-31v-68.4L254,503.2L254,503.2z"/>
<path d="M293.1,571.9h-17.2v-68.5h17.2V571.9z"/>
<path d="M466.2,503.3v68.4h-17.4v-68.4L466.2,503.3L466.2,503.3z"/>
<path d="M264.5,98h-22.8c0.3-4.1,0.3-8.6,1.3-12.9c0.3-1.3,3-2.7,4.7-2.9c3.1-0.3,6.1-0.4,9.2-0.1c3.4,0,5.6,1.6,6.1,5.2
	C263.5,90.6,264,94,264.5,98z"/>
<path d="M420.1,98.1h-22.4c0.3-4.4,0.3-9.1,1.3-13.6c0.3-1.2,3.8-2,5.9-2.4c2.5-0.4,5.1,0.2,7.6-0.1c3.5-0.4,5.6,1.4,6.3,4.2
	C419.7,90,419.7,93.8,420.1,98.1z"/>
<path d="M342.3,98c-7,0.2-13.7,0.3-20.4,0.4c-0.6,0-1.7-0.5-1.7-0.7c0-4-0.5-8.3,0.5-12c0.5-1.6,4.3-2.8,6.7-3.1
	c3.3-0.3,6.6-0.2,9.9,0.4c1.3,0.2,3.2,1.5,3.4,2.5C341.6,89.1,341.8,93,342.3,98z"/>
<path d="M417.8,579.8V574c-6.7-3.2-9.1-7.5-6.7-13.8c0.9-2.3,3.7-5,6-5.4c2-0.3,5.2,2,6.5,4C427.3,564.6,424,575.7,417.8,579.8z"/>
<path d="M595.5,563.8c0,5.2-3.3,9.7-7.2,9.6s-7.3-4.4-7.3-9.6c0-4.8,3.4-9.3,7.1-9.3C592.4,554.5,595.5,558.3,595.5,563.8z"/>
<path d="M238.5,101.6c9.2-2.3,18.5-0.7,27.8-0.8c0.3,0.6,0.5,1.1,0.8,1.7c-1.6,1-3.2,2.8-4.9,2.9c-6.3,0.4-12.6,0.3-18.8,0.1
	c-1.7-0.1-3.3-1.2-4.9-1.8L238.5,101.6z"/>
<path d="M423.8,102.7c-2.6,1.3-4,2.6-5.4,2.7c-6.1,0.2-12.2,0.1-18.2,0.1c-1.3,0-2.6-0.2-3.9-0.7c-0.7-0.6-1.2-1.5-1.2-2.4
	c0.2-0.8,0.7-1.4,1.5-1.6C405.2,100.6,414,98.5,423.8,102.7z"/>
<path d="M316.1,102.5c6.5-4.1,26.1-3.2,28.5,1.2C340.5,106.2,319.5,105.5,316.1,102.5z"/>
</svg>
